{
	"asset":{
		"generator":"Khronos glTF Blender I/O v4.1.63",
		"version":"2.0"
	},
	"scene":0,
	"scenes":[
		{
			"name":"Scene",
			"nodes":[
				0
			]
		}
	],
	"nodes":[
		{
			"mesh":0,
			"name":"Plane",
			"rotation":[
				1,
				0,
				0,
				0
			],
			"scale":[
				-22.744342803955078,
				-1,
				-12.182201385498047
			],
			"translation":[
				31.221282958984375,
				11.342350006103516,
				27.001272201538086
			]
		}
	],
	"meshes":[
		{
			"name":"Plane",
			"primitives":[
				{
					"attributes":{
						"POSITION":0,
						"NORMAL":1,
						"TEXCOORD_0":2
					},
					"indices":3
				}
			]
		}
	],
	"accessors":[
		{
			"bufferView":0,
			"componentType":5126,
			"count":598,
			"max":[
				5.419604301452637,
				110.19966888427734,
				5.149685859680176
			],
			"min":[
				-2.9855263233184814,
				-53.91802978515625,
				-9.568212509155273
			],
			"type":"VEC3"
		},
		{
			"bufferView":1,
			"componentType":5126,
			"count":598,
			"type":"VEC3"
		},
		{
			"bufferView":2,
			"componentType":5126,
			"count":598,
			"type":"VEC2"
		},
		{
			"bufferView":3,
			"componentType":5123,
			"count":894,
			"type":"SCALAR"
		}
	],
	"bufferViews":[
		{
			"buffer":0,
			"byteLength":7176,
			"byteOffset":0,
			"target":34962
		},
		{
			"buffer":0,
			"byteLength":7176,
			"byteOffset":7176,
			"target":34962
		},
		{
			"buffer":0,
			"byteLength":4784,
			"byteOffset":14352,
			"target":34962
		},
		{
			"buffer":0,
			"byteLength":1788,
			"byteOffset":19136,
			"target":34963
		}
	],
	"buffers":[
		{
			"byteLength":20924,
			"uri":"colMesh.bin"
		}
	]
}
